<svg id="visual" viewBox="0 0 1349 400" width="1349" height="400" xmlns="http://www.w3.org/2000/svg" xmlns:xlink="http://www.w3.org/1999/xlink" version="1.1"><rect x="0" y="0" width="1349" height="400" fill="#01020c"></rect><path d="M0 287L25 294.8C50 302.7 100 318.3 150 322.7C200 327 250 320 300 314.2C350 308.3 400 303.7 450 298.3C500 293 550 287 599.8 292.7C649.7 298.3 699.3 315.7 749.2 323.7C799 331.7 849 330.3 899 324.3C949 318.3 999 307.7 1049 308.7C1099 309.7 1149 322.3 1199 324C1249 325.7 1299 316.3 1324 311.7L1349 307L1349 401L1324 401C1299 401 1249 401 1199 401C1149 401 1099 401 1049 401C999 401 949 401 899 401C849 401 799 401 749.2 401C699.3 401 649.7 401 599.8 401C550 401 500 401 450 401C400 401 350 401 300 401C250 401 200 401 150 401C100 401 50 401 25 401L0 401Z" fill="#f0e20f" stroke-linecap="round" stroke-linejoin="miter"></path></svg>